<?xml version="1.0" encoding="UTF-8"?>
<svg width="164px" height="18px" viewBox="0 0 164 18" version="1.1" xmlns="http://www.w3.org/2000/svg" xmlns:xlink="http://www.w3.org/1999/xlink">
    <!-- Generator: Sketch 63.1 (92452) - https://sketch.com -->
    <title>DI linear logo</title>
    <desc>Created with Sketch.</desc>
    <g id="Symbols" stroke="none" stroke-width="1" fill="none" fill-rule="evenodd">
        <g id="Brand/Logotype_Horizontal/On-Light" transform="translate(-16.000000, -16.000000)" fill-rule="nonzero">
            <g id="DI-linear-logo" transform="translate(16.000000, 16.000000)">
                <path d="M157.077049,14.3880874 C155.858251,14.3880874 154.962077,13.4919126 154.962077,11.9504918 C154.962077,10.409071 155.885137,9.51289617 157.077049,9.51289617 C158.268962,9.51289617 159.263716,10.409071 159.263716,11.9728962 C159.263716,13.5367213 158.273443,14.3880874 157.077049,14.3880874 M163.139672,5.82513661 C162.953984,4.36359513 162.68469,2.91389607 162.333115,1.4831694 L158.555738,1.4831694 C158.596066,1.63103825 158.640874,1.78338798 158.681202,1.93125683 C159.052634,3.36683887 159.332505,4.82456412 159.519126,6.29562842 C159.559454,6.59584699 159.595301,6.90054645 159.626667,7.19180328 L159.362295,6.94983607 C158.546696,6.22226897 157.473154,5.85258319 156.382514,5.92371585 C153.089071,5.92371585 150.750055,8.43300546 150.750055,11.9280874 C150.750055,15.5844809 153.304153,17.9772678 157.099454,17.9772678 C160.966448,17.9772678 163.453333,15.1856831 163.453333,10.7137705 C163.44746,9.08044857 163.338207,7.44913607 163.12623,5.82961749" id="Shape" fill="#77AF43"></path>
                <path d="M129.837814,9.51289617 C128.641421,9.51289617 127.718361,10.409071 127.718361,11.9504918 C127.718361,13.4919126 128.614536,14.3880874 129.837814,14.3880874 C131.061093,14.3880874 132.02,13.5367213 132.02,11.9728962 C132.02,10.409071 131.029727,9.51289617 129.837814,9.51289617 L129.837814,9.51289617 Z M137.423934,14.9123497 L137.423934,17.6994536 C136.780725,17.8804474 136.11605,17.9738938 135.447869,17.9772678 C133.996066,17.9772678 133.010273,17.399235 132.48153,16.2521311 C131.769071,17.399235 130.639891,17.9772678 129.076066,17.9772678 C125.939454,17.9772678 123.672131,15.4455738 123.672131,11.9728962 C123.672131,8.50021858 125.912568,5.92371585 129.076066,5.92371585 C130.617486,5.92371585 131.791475,6.52415301 132.459126,7.60404372 L132.526339,6.20153005 L136.137923,6.20153005 C136.003497,8.46437158 135.931803,10.4180328 135.91388,12.4747541 C135.91388,12.8601093 135.91388,13.2544262 135.91388,13.653224 C135.91388,14.4463388 136.164809,14.939235 136.810055,14.939235 L137.423934,14.9123497 Z" id="Shape" fill="#77AF43"></path>
                <rect id="Rectangle" fill="#77AF43" x="91.8624044" y="2.51825137" width="3.95661202" height="15.1812022"></rect>
                <rect id="Rectangle" fill="#77AF43" x="118.49224" y="2.51825137" width="3.95661202" height="15.1812022"></rect>
                <path d="M105.273661,9.69661202 L104.332678,9.69661202 C102.517923,9.69661202 101.594863,10.5255738 101.594863,12.4568306 L101.594863,17.6994536 L97.6382514,17.6994536 L97.6382514,6.20153005 L101.26776,6.20153005 L101.26776,7.42032787 C101.961565,6.52509262 103.034333,6.0061182 104.166885,6.01781421 C104.549364,6.01645382 104.92942,6.07853467 105.291585,6.20153005 L105.273661,9.69661202 Z" id="Path" fill="#77AF43"></path>
                <path d="M149.558142,17.6994536 L145.60153,17.6994536 L145.60153,11.2021858 C145.627284,10.7483136 145.459794,10.304735 145.140483,9.98115534 C144.821172,9.65757566 144.379857,9.4842098 143.925683,9.50393443 C143.473349,9.48515946 143.034342,9.65946953 142.718087,9.98341695 C142.401832,10.3073644 142.238121,10.750433 142.26776,11.2021858 L142.26776,17.6994536 L138.311148,17.6994536 L138.311148,6.20153005 L141.922732,6.20153005 L141.922732,7.14251366 C142.803169,6.31897792 143.975546,5.88034412 145.180328,5.92371585 C147.846448,5.92371585 149.571585,7.76535519 149.571585,10.6151913 L149.558142,17.6994536 Z" id="Path" fill="#77AF43"></path>
                <path d="M109.557377,10.9602186 C109.857596,9.72349727 110.664153,9.02896175 111.649945,9.02896175 C112.161998,9.02273453 112.654581,9.22494577 113.014565,9.58915518 C113.374549,9.9533646 113.570999,10.448273 113.558798,10.9602186 L109.557377,10.9602186 Z M111.797814,5.92371585 C110.180094,5.89364147 108.618223,6.51530197 107.463638,7.64881777 C106.309053,8.78233358 105.658737,10.3324917 105.659016,11.9504918 C105.659016,15.3559563 108.347541,17.9772678 112.120437,17.9772678 C113.775333,17.992283 115.387019,17.4492663 116.69541,16.435847 L115.270492,13.7473224 C114.370855,14.3229015 113.327304,14.633482 112.259344,14.6434973 L112.021858,14.6434973 L111.82918,14.6434973 L111.779891,14.6434973 L111.627541,14.6434973 L111.555847,14.6434973 L111.425902,14.6434973 L111.349727,14.6434973 L111.219781,14.6121311 L111.148087,14.6121311 L111.022623,14.5718033 L110.964372,14.5718033 L110.829945,14.5180328 L110.807541,14.5180328 C110.245166,14.2914646 109.808704,13.8321177 109.611148,13.2589071 L117.098689,13.2589071 C117.125574,13.1334426 117.152459,13.0079781 117.174863,12.8780328 L117.174863,12.8780328 C117.174863,12.833224 117.174863,12.7884153 117.197268,12.7436066 L117.197268,12.6763934 C117.199438,12.6360948 117.199438,12.5957085 117.197268,12.5554098 L117.197268,12.4702732 L117.197268,12.3582514 C117.195061,12.3254287 117.195061,12.2924948 117.197268,12.2596721 C117.197268,12.2238251 117.197268,12.1879781 117.197268,12.156612 C117.197268,12.1252459 117.197268,12.0804372 117.197268,12.0445902 C117.197268,12.0087432 117.197268,11.9818579 117.197268,11.9504918 C117.197268,11.9191257 117.197268,11.8608743 117.197268,11.8160656 L117.197268,11.7398907 C117.197268,11.6681967 117.197268,11.5965027 117.197268,11.5248087 C117.23122,10.0605385 116.661367,8.64677063 115.621465,7.61534319 C114.581562,6.58391576 113.163178,6.02565116 111.699235,6.0715847 L111.797814,5.92371585 Z" id="Shape" fill="#77AF43"></path>
                <rect id="Rectangle" fill="#026937" x="16.3103825" y="6.19704918" width="3.95661202" height="11.4979235"></rect>
                <path d="M23.4170492,13.442623 C24.2445881,14.3183031 25.385235,14.8306276 26.5895082,14.867541 C27.2571585,14.867541 27.6021858,14.7062295 27.6021858,14.3612022 C27.6021858,14.1102732 27.4184699,13.9937705 26.9345355,13.7876503 L25.6485246,13.2589071 C23.3677596,12.3403279 22.3102732,11.372459 22.3102732,9.55770492 C22.3102732,7.28142077 24.102623,5.94612022 26.7911475,5.94612022 C28.5834973,5.94612022 30.0353005,6.49726776 31.1151913,7.62644809 L29.2511475,10.0371585 C28.5866562,9.42129179 27.7193514,9.07054352 26.8135519,9.05136612 C26.2848087,9.05136612 26.0114754,9.19027322 26.0114754,9.49945355 C26.0114754,9.80863388 26.24,9.91617486 26.7911475,10.1222951 L27.9427322,10.5703825 C30.2414208,11.4889617 31.2989071,12.3627322 31.2989071,14.1774863 C31.3388561,15.2765581 30.8363467,16.3251277 29.9546448,16.9825137 C28.9562772,17.6880743 27.7527985,18.0440772 26.5312568,17.9951913 C24.6360721,18.0604505 22.8169667,17.2468143 21.6022951,15.7906011 L23.4170492,13.442623 Z" id="Path" fill="#026937"></path>
                <path d="M38.5713661,5.92371585 C40.7471847,5.8432737 42.7664277,7.05130779 43.7243716,9.00655738 L40.9865574,11.0991257 C40.3637158,10.1088525 39.6422951,9.55770492 38.6161749,9.55770492 C37.2360656,9.55770492 36.3398907,10.5479781 36.3398907,11.9504918 C36.3398907,13.3530055 37.2360656,14.3387978 38.6161749,14.3387978 C39.6512568,14.3387978 40.3637158,13.7652459 40.9865574,12.8242623 L43.7243716,14.8944262 C42.7660097,16.8487433 40.7464569,18.0552066 38.5713661,17.9727869 C35.1434973,18.0444809 32.2219672,15.2842623 32.2981421,11.9504918 C32.2264481,8.61224044 35.1479781,5.85202186 38.5713661,5.92371585" id="Path" fill="#026937"></path>
                <path d="M50.8310383,9.55770492 C49.5181421,9.55770492 48.5906011,10.5479781 48.5906011,11.9504918 C48.5906011,13.3530055 49.5091803,14.3387978 50.8310383,14.3387978 C52.1528962,14.3387978 53.0356284,13.3306011 53.0356284,11.9504918 C53.0356284,10.5703825 52.0946448,9.55770492 50.8310383,9.55770492 M50.8310383,5.92371585 C54.2544262,5.85202186 57.1759563,8.66153005 57.1042623,11.9504918 C57.1714754,15.2394536 54.2499454,18.0444809 50.8310383,17.9727869 C47.4031694,18.0444809 44.5040437,15.2394536 44.5578142,11.9504918 C44.4906011,8.66153005 47.3897268,5.85202186 50.8310383,5.92371585" id="Shape" fill="#026937"></path>
                <path d="M90.1820765,9.69661202 L89.2410929,9.69661202 C87.4218579,9.69661202 86.5032787,10.5210929 86.5032787,12.4523497 L86.5032787,17.6994536 L82.5466667,17.6994536 L82.5466667,6.19704918 L86.1582514,6.19704918 L86.1582514,7.41584699 C87.1098597,6.19814728 88.7242869,5.71023152 90.1910383,6.19704918 L90.1820765,9.69661202 Z" id="Path" fill="#026937"></path>
                <path d="M65.707541,6.19704918 C65.707541,6.19704918 64.8740984,10.1536612 63.3774863,12.3179235 L63.3774863,12.3179235 C61.8808743,10.1536612 61.0474317,6.19704918 61.0474317,6.19704918 L56.8578142,6.19704918 C58.1169399,10.5659016 60.3304918,15.5710383 63.3774863,17.9727869 C66.4289617,15.5710383 68.6425137,10.5659016 69.9016393,6.19704918 L65.707541,6.19704918 Z" id="Path" fill="#026937"></path>
                <path d="M18.2640437,0.448087432 C18.9000572,0.4312429 19.5162332,0.670304127 19.9744648,1.11168901 C20.4326964,1.55307388 20.6946597,2.15986739 20.7016393,2.79606557 C20.6887549,3.42795882 20.4240514,4.02854006 19.9663384,4.46437707 C19.5086254,4.90021408 18.8958104,5.13521112 18.2640437,5.11715847 C17.6337059,5.13771366 17.0217778,4.90285277 16.5670545,4.46584591 C16.1123311,4.02883905 15.8533501,3.42672244 15.8488525,2.79606557 C15.8510686,2.16229723 16.1084277,1.55612644 16.5628508,1.11434957 C17.017274,0.672572688 17.6304652,0.432419985 18.2640437,0.448087432" id="Path" fill="#026937"></path>
                <path d="M7.11562842,14.1102732 L5.77136612,14.1102732 L5.77136612,6.10743169 L7.11562842,6.10743169 C9.32555208,6.10743169 11.1170492,7.89892879 11.1170492,10.1088525 C11.1170492,12.3187761 9.32555208,14.1102732 7.11562842,14.1102732 M7.11562842,2.51825137 L0,2.51825137 L0,6.10295082 L1.82371585,6.10295082 L1.82371585,17.6994536 L7.11562842,17.6994536 C11.3078016,17.6994536 14.7062295,14.3010257 14.7062295,10.1088525 C14.7062295,5.91667923 11.3078016,2.51825137 7.11562842,2.51825137" id="Shape" fill="#026937"></path>
                <path d="M73.4863388,10.9602186 C73.7865574,9.72349727 74.5886339,9.02896175 75.5789071,9.02896175 C76.0909602,9.02273453 76.5835427,9.22494577 76.9435269,9.58915518 C77.3035112,9.9533646 77.4999611,10.448273 77.4877596,10.9602186 L73.4863388,10.9602186 Z M75.726776,5.92371585 C74.109413,5.89487242 72.5482544,6.51693387 71.3939407,7.65018348 C70.2396269,8.78343309 69.5889228,10.332872 69.5879781,11.9504918 C69.5879781,15.3514754 72.303388,17.9727869 76.0538798,17.9727869 C77.7085527,17.9864055 79.3197939,17.4435388 80.6288525,16.4313661 L79.2039344,13.7428415 C78.3015029,14.3159257 77.2572519,14.6262529 76.188306,14.6390164 L75.9463388,14.6390164 L75.7581421,14.6390164 L75.726776,14.6390164 L75.5744262,14.6390164 L75.5027322,14.6390164 L75.368306,14.6390164 L75.2921311,14.6390164 L75.1666667,14.6121311 L75.0949727,14.5897268 L74.9650273,14.5538798 L74.9112568,14.5314754 L74.7723497,14.4821858 L74.7499454,14.4821858 C74.3921814,14.3260157 74.0827463,14.0769204 73.8537705,13.760765 C73.7367516,13.5929258 73.6418704,13.4106937 73.5714754,13.2185792 L81.0590164,13.2185792 C81.0888889,13.0931148 81.1157741,12.9676503 81.1396721,12.8421858 L81.1396721,12.8421858 C81.1396721,12.797377 81.1396721,12.7525683 81.1620765,12.7077596 L81.1620765,12.6405464 C81.1599059,12.6002478 81.1599059,12.5598615 81.1620765,12.5195628 C81.1620765,12.4926776 81.1620765,12.4657923 81.1620765,12.4344262 L81.1620765,12.3268852 C81.1640865,12.2940562 81.1640865,12.261135 81.1620765,12.228306 L81.1620765,12.120765 C81.1620765,12.084918 81.1620765,12.049071 81.1620765,12.0087432 C81.1620765,11.9684153 81.1620765,11.9460109 81.1620765,11.9146448 C81.1620765,11.8832787 81.1620765,11.8250273 81.1620765,11.7802186 C81.1620765,11.7354098 81.1620765,11.730929 81.1620765,11.7040437 C81.1620765,11.6771585 81.1620765,11.5606557 81.1620765,11.4889617 C81.2267733,10.016766 80.6793375,8.58343359 79.6497138,7.52919399 C78.6200901,6.4749544 77.2000892,5.89381329 75.726776,5.92371585 L75.726776,5.92371585 Z" id="Shape" fill="#026937"></path>
            </g>
        </g>
    </g>
</svg>